<?xml version="1.0" standalone="no"?>
<!DOCTYPE svg PUBLIC "-//W3C//DTD SVG 20010904//EN"
 "http://www.w3.org/TR/2001/REC-SVG-20010904/DTD/svg10.dtd">
<svg version="1.0" xmlns="http://www.w3.org/2000/svg" width="317.000000pt" height="48.000000pt" viewBox="0 0 317.000000 48.000000" preserveAspectRatio="xMidYMid meet">
  <g transform="translate(0.000000,48.000000) scale(0.100000,-0.100000)" fill="#000000" stroke="none">
    <path fill="#FF0000" d="M38 448 c21 -11 22 -16 22 -148 0 -132 -1 -137 -22 -148 -20 -9 -15
-11 32 -11 47 0 52 2 33 11 -22 11 -23 17 -23 130 0 65 2 118 4 118 2 0 28
-59 57 -130 29 -72 56 -127 60 -123 4 5 33 64 64 133 31 69 59 127 61 129 2 2
4 -52 4 -121 0 -120 -1 -125 -22 -136 -19 -9 -12 -11 42 -11 54 0 61 2 43 11
-22 11 -23 16 -23 148 0 132 1 137 23 148 19 9 17 11 -24 11 l-46 1 -54 -120
c-29 -65 -57 -116 -60 -112 -4 4 -28 58 -54 120 l-47 112 -47 -1 c-40 0 -43
-2 -23 -11z"/>
    <path fill="#FF0000" d="M524 441 c-71 -32 -96 -136 -55 -227 15 -34 28 -45 65 -59 52 -20
121 -16 160 10 52 35 73 145 41 221 -27 65 -130 92 -211 55z m146 -29 c52 -52
52 -172 0 -224 -40 -40 -100 -39 -141 1 -27 28 -29 34 -29 111 0 77 2 83 29
111 41 40 101 41 141 1z"/>
    <path fill="#FF0000" d="M796 449 c14 -7 40 -58 81 -157 33 -80 64 -147 69 -149 5 -2 36 63
68 143 35 86 67 151 80 159 19 14 16 15 -34 14 -43 0 -50 -2 -32 -9 12 -5 22
-12 22 -15 0 -3 -16 -45 -36 -93 -20 -48 -41 -98 -46 -112 -9 -23 -14 -14 -57
90 -48 114 -48 115 -27 127 18 11 12 12 -44 12 -51 0 -60 -3 -44 -10z"/>
    <path fill="#FF0000" d="M1158 448 c21 -11 22 -16 22 -148 0 -132 -1 -137 -22 -148 -19 -9
-12 -11 42 -11 54 0 61 2 43 11 -22 11 -23 16 -23 148 0 132 1 137 23 148 18
9 11 11 -43 11 -54 0 -61 -2 -42 -11z"/>
    <path fill="#FF0000" d="M1318 448 c21 -11 22 -16 22 -148 0 -132 -1 -137 -22 -148 -18 -8 4
-11 98 -11 118 -1 122 0 128 22 8 32 7 57 -3 57 -5 0 -11 -13 -14 -30 -6 -30
-7 -30 -77 -30 l-70 0 0 65 0 65 45 0 c39 0 45 -3 45 -21 0 -11 5 -17 10 -14
6 3 10 26 10 51 0 24 -4 44 -10 44 -5 0 -10 -9 -10 -20 0 -17 -7 -20 -45 -20
l-45 0 0 65 0 65 65 0 c62 0 65 -1 65 -24 0 -14 5 -28 10 -31 6 -4 10 10 10
34 l0 41 -117 -1 c-92 0 -113 -3 -95 -11z"/>
    <path fill="#FF0000" d="M1650 442 c-30 -15 -35 -22 -38 -58 -4 -48 4 -56 92 -99 51 -25 62
-35 64 -58 5 -39 -23 -67 -64 -67 -48 0 -65 9 -80 44 l-13 31 -1 -42 0 -42 54
-6 c86 -11 131 11 142 71 9 49 -16 80 -91 114 -71 32 -88 59 -59 91 11 12 30
19 53 19 41 0 53 -6 69 -35 10 -18 11 -17 12 11 0 25 -5 33 -22 38 -40 10 -82
6 -118 -12z"/>
    <path fill="#FF0000" d="M1865 450 c3 -5 13 -10 21 -10 11 0 14 -25 14 -138 0 -134 -1 -139
-22 -150 -19 -9 -12 -11 42 -11 49 0 59 3 43 9 -21 8 -23 16 -23 75 l0 65 75
0 75 0 0 -63 c0 -56 -3 -65 -22 -75 -19 -9 -12 -11 42 -11 54 0 61 2 43 11
-22 11 -23 16 -23 148 0 132 1 137 23 148 18 9 11 11 -43 11 -54 0 -61 -2 -42
-11 19 -10 22 -19 22 -75 l0 -63 -75 0 -75 0 0 63 c0 56 3 65 23 75 18 9 12
11 -41 11 -40 1 -61 -3 -57 -9z"/>
    <path fill="#FF0000" d="M2301 362 c-62 -179 -71 -199 -94 -210 -19 -9 -13 -11 33 -11 45 0
51 2 33 11 -20 10 -21 12 -6 54 l15 44 64 0 c58 0 65 -2 73 -22 22 -59 22 -65
-1 -76 -19 -9 -11 -11 47 -11 65 0 68 1 45 14 -20 11 -36 45 -79 159 -46 126
-56 146 -75 146 -18 0 -26 -15 -55 -98z m67 6 c39 -105 41 -98 -22 -98 l-55 0
26 75 c13 41 26 75 28 75 2 0 12 -24 23 -52z"/>
    <path fill="#FF0000" d="M2568 448 c21 -11 22 -16 22 -148 0 -132 -1 -137 -22 -148 -19 -9
-10 -11 47 -11 59 1 65 2 43 11 -26 9 -28 14 -28 62 0 40 5 57 19 70 11 10 23
16 28 13 4 -3 33 -39 63 -81 53 -72 57 -75 95 -75 34 0 37 2 20 11 -11 5 -49
48 -84 94 l-64 85 44 46 c24 25 58 54 74 64 l30 19 -54 0 c-46 0 -52 -2 -38
-13 16 -11 10 -20 -58 -87 l-75 -74 0 75 c0 69 2 77 23 87 18 9 11 11 -43 11
-54 0 -61 -2 -42 -11z"/>
    <path fill="#FF0000" d="M2918 448 c21 -11 22 -16 22 -148 0 -132 -1 -137 -22 -148 -18 -8 4
-11 98 -11 118 -1 122 0 128 22 8 32 7 57 -3 57 -5 0 -11 -13 -14 -30 -6 -30
-7 -30 -77 -30 l-70 0 0 65 0 65 45 0 c39 0 45 -3 45 -21 0 -11 5 -17 10 -14
6 3 10 26 10 51 0 24 -4 44 -10 44 -5 0 -10 -9 -10 -20 0 -17 -7 -20 -45 -20
l-45 0 0 65 0 65 65 0 c62 0 65 -1 65 -24 0 -14 5 -28 10 -31 6 -4 10 10 10
34 l0 41 -117 -1 c-92 0 -113 -3 -95 -11z"/>
  </g>
</svg>
